<svg width="23" height="24" viewBox="0 0 23 24" fill="none" xmlns="http://www.w3.org/2000/svg">
<path d="M2.03139 3.8548C2.55236 2.89968 3.2839 2.14516 4.21886 1.60058C5.16309 1.03078 6.24009 0.753418 7.43166 0.753418C8.64073 0.753418 9.72806 1.02982 10.6739 1.60058C11.6089 2.14517 12.3404 2.89968 12.8614 3.8548C13.3837 4.81238 13.6393 5.88177 13.6393 7.04953V17.3331C13.6393 17.7659 13.7422 18.1443 13.9418 18.4821C14.1501 18.8346 14.4169 19.1083 14.7446 19.3122C15.088 19.514 15.4464 19.6116 15.8295 19.6116C16.2141 19.6116 16.5601 19.5133 16.8797 19.3153C17.2055 19.1137 17.46 18.8447 17.6483 18.4994L17.6531 18.4906L17.6582 18.4821C17.8577 18.1443 17.9606 17.7659 17.9606 17.3331V1.68672V1.10701H18.5403H21.3691H21.9487V1.68672V16.9501C21.9487 18.1178 21.6931 19.1872 21.1708 20.1448C20.6519 21.096 19.9341 21.8583 19.0223 22.4227L19.0179 22.4254L19.0136 22.4279C18.0865 22.9799 17.0184 23.2462 15.8295 23.2462C14.6402 23.2462 13.5649 22.9797 12.6209 22.431L12.614 22.4269L12.6072 22.4227C11.6954 21.8583 10.9775 21.096 10.4587 20.1448C9.93633 19.1872 9.68066 18.1178 9.68066 16.9501V6.66646C9.68066 6.23372 9.5778 5.85528 9.37826 5.51754C9.1726 5.16957 8.89906 4.89604 8.55113 4.69041C8.20986 4.48878 7.84053 4.38798 7.43166 4.38798C7.02481 4.38798 6.65714 4.48777 6.31734 4.68739C5.99235 4.88967 5.72723 5.16054 5.51967 5.5089C5.33702 5.84724 5.24157 6.2291 5.24157 6.66646V22.3129V22.8926H4.66186H1.83313H1.25342V22.3129V7.04953C1.25342 5.88177 1.50907 4.81238 2.03139 3.8548ZM2.03139 3.8548L2.53106 4.12734" stroke="url(#paint0_linear_36_1729)" stroke-width="1.15942"/>
<defs>
<linearGradient id="paint0_linear_36_1729" x1="23.2608" y1="0.213442" x2="0.547457" y2="24.1545" gradientUnits="userSpaceOnUse">
<stop stop-color="#5EEAD4"/>
<stop offset="1" stop-color="#0D9488"/>
</linearGradient>
</defs>
</svg>
